
<svg width="30px" height="30px" viewBox="0 0 30 30" version="1.1" xmlns="http://www.w3.org/2000/svg" xmlns:xlink="http://www.w3.org/1999/xlink">
    <defs>
        <polygon id="path-1" points="0 1.35431501e-05 29.9999928 1.35431501e-05 29.9999928 29.9997692 0 29.9997692"></polygon>
    </defs>
    <g id="Consumer" stroke="none" stroke-width="1" fill="none" fill-rule="evenodd">
        <g id="Desktop-HD" transform="translate(-1150.000000, -5032.000000)">
            <g id="Footer" transform="translate(0.000000, 4975.000000)">
                <g id="Social-Icons" transform="translate(1150.000000, 57.000000)">
                    <g id="Instagram">
                        <polygon id="Stroke-1" stroke-opacity="0.0117647061" stroke="#000000" stroke-width="1.33333336e-11" points="0 0 30 0 30 30 0 30"></polygon>
                        <g id="Group-5">
                            <mask id="mask-2" fill="white">
                                <use xlink:href="#path-1"></use>
                            </mask>
                            <g id="Clip-4"></g>
                            <path d="M8.80449,0.1839 C6.36264,0.29445 4.246215,0.8913 2.53725,2.59275 C0.822285,4.30365 0.232725,6.4284 0.122265,8.84475 C0.05361,10.35285 -0.347895,21.747 0.81633,24.7353 C1.6014,26.751 3.147675,28.30155 5.18202,29.0889 C6.13128,29.45805 7.21491,29.70855 8.80449,29.781 C22.095705,30.38235 27.02262,30.0549 29.10027,24.7353 C29.468955,23.78835 29.72268,22.7058 29.79282,21.12015 C30.400275,7.7952 29.6943,4.9065 27.37788,2.59275 C25.540515,0.7602 23.379315,-0.48705 8.80449,0.1839 M8.926845,27.1011 C7.47162,27.03585 6.682065,26.7927 6.155175,26.58915 C4.82982,26.0742 3.83427,25.08255 3.322305,23.76495 C2.435715,21.4944 2.729775,10.71015 2.808885,8.96565 C2.88648,7.2561 3.23277,5.6946 4.438755,4.4883 C5.931285,2.99925 7.859715,2.2698 20.989695,2.8623 C22.70316,2.94 24.268845,3.2856 25.477845,4.4883 C26.97039,5.97735 27.71073,7.92045 27.107715,21 C27.04203,22.4517 26.79876,23.23905 26.59428,23.76495 C25.243515,27.22635 22.13598,27.70755 8.926845,27.1011 M21.13449,7.03425 C21.13449,8.02005 21.935985,8.82135 22.92558,8.82135 C23.91513,8.82135 24.71814,8.02005 24.71814,7.03425 C24.71814,6.04905 23.91513,5.24775 22.92558,5.24775 C21.935985,5.24775 21.13449,6.04905 21.13449,7.03425 M7.294005,14.9817 C7.294005,19.20405 10.725405,22.6275 14.9583,22.6275 C19.191195,22.6275 22.622595,19.20405 22.622595,14.9817 C22.622595,10.75935 19.191195,7.33815 14.9583,7.33815 C10.725405,7.33815 7.294005,10.75935 7.294005,14.9817 M9.983595,14.9817 C9.983595,12.2424 12.21048,10.01955 14.9583,10.01955 C17.706075,10.01955 19.933005,12.2424 19.933005,14.9817 C19.933005,17.7231 17.706075,19.9461 14.9583,19.9461 C12.21048,19.9461 9.983595,17.7231 9.983595,14.9817" id="Fill-3" fill="#FFFFFF" mask="url(#mask-2)"></path>
                        </g>
                    </g>
                </g>
            </g>
        </g>
    </g>
</svg>