<?xml version="1.0" encoding="UTF-8"?>
<svg width="44px" height="44px" viewBox="0 0 44 44" version="1.1" xmlns="http://www.w3.org/2000/svg" xmlns:xlink="http://www.w3.org/1999/xlink">
    <!-- Generator: Sketch 55.2 (78181) - https://sketchapp.com -->
    <title>Fill 3@2x</title>
    <desc>Created with Sketch.</desc>
    <g id="Corporate" stroke="none" stroke-width="1" fill="none" fill-rule="evenodd">
        <g id="Desktop-HD-Blue" transform="translate(-273.000000, -8397.000000)" fill="#FFFFFF">
            <g id="Mission" transform="translate(0.000000, 6112.000000)">
                <g id="Values" transform="translate(245.000000, 1646.000000)">
                    <g id="4" transform="translate(0.000000, 603.000000)">
                        <g id="Group-5" transform="translate(26.000000, 34.000000)">
                            <path d="M45.9999999,13.9999999 L45.9999999,1.99999988 L33.9999999,1.99999988 L33.9999999,5.99999988 L13.9999999,5.99999988 L13.9999999,1.99999988 L1.99999988,1.99999988 L1.99999988,13.9999999 L5.99999988,13.9999999 L5.99999988,33.9999999 L1.99999988,33.9999999 L1.99999988,45.9999999 L13.9999999,45.9999999 L13.9999999,41.9999999 L33.9999999,41.9999999 L33.9999999,45.9999999 L45.9999999,45.9999999 L45.9999999,33.9999999 L41.9999999,33.9999999 L41.9999999,13.9999999 L45.9999999,13.9999999 Z M5.99999964,5.99999964 L9.99999964,5.99999964 L9.99999964,9.99999964 L5.99999964,9.99999964 L5.99999964,5.99999964 Z M9.99999964,41.9999977 L5.99999964,41.9999977 L5.99999964,37.9999977 L9.99999964,37.9999977 L9.99999964,41.9999977 Z M33.9999994,37.9999994 L13.9999994,37.9999994 L13.9999994,33.9999994 L9.9999994,33.9999994 L9.9999994,13.9999994 L13.9999994,13.9999994 L13.9999994,9.9999994 L33.9999994,9.9999994 L33.9999994,13.9999994 L37.9999994,13.9999994 L37.9999994,33.9999994 L33.9999994,33.9999994 L33.9999994,37.9999994 Z M41.9999977,41.9999977 L37.9999977,41.9999977 L37.9999977,37.9999977 L41.9999977,37.9999977 L41.9999977,41.9999977 Z M37.9999977,9.99999964 L37.9999977,5.99999964 L41.9999977,5.99999964 L41.9999977,9.99999964 L37.9999977,9.99999964 Z M27.4599974,27.9999992 L20.4799984,27.9999992 L19.0199993,31.9999992 L15.7799989,31.9999992 L22.5799986,13.9999992 L25.3799977,13.9999992 L32.1999989,31.9999992 L28.9399989,31.9999992 L27.4599994,27.9999992 L27.4599974,27.9999992 Z M21.3799979,25.4799981 L26.5999968,25.4799981 L23.9999986,17.8199985 L21.3799979,25.4799981 L21.3799979,25.4799981 Z" id="Fill-3"></path>
                        </g>
                    </g>
                </g>
            </g>
        </g>
    </g>
</svg>