<?xml version="1.0" encoding="UTF-8"?>
<svg width="42px" height="42px" viewBox="0 0 42 42" version="1.1" xmlns="http://www.w3.org/2000/svg" xmlns:xlink="http://www.w3.org/1999/xlink">
    <!-- Generator: Sketch 55.2 (78181) - https://sketchapp.com -->
    <title>Fill 3@2x</title>
    <desc>Created with Sketch.</desc>
    <g id="Corporate" stroke="none" stroke-width="1" fill="none" fill-rule="evenodd">
        <g id="Desktop-HD-Blue" transform="translate(-275.000000, -7995.000000)" fill="#FFFFFF">
            <g id="Mission" transform="translate(0.000000, 6112.000000)">
                <g id="Values" transform="translate(245.000000, 1646.000000)">
                    <g id="2" transform="translate(0.000000, 201.000000)">
                        <g id="Group-5" transform="translate(26.000000, 34.000000)">
                            <path d="M40.9999998,21.9999999 L37.9999998,21.9999999 L37.9999998,13.9999999 C37.9999998,11.7999995 36.1999978,9.99999988 33.9999998,9.99999988 L25.9999998,9.99999988 L25.9999998,6.99999988 C25.9999998,4.23999955 23.7599988,1.99999988 20.9999998,1.99999988 C18.2399987,1.99999988 15.9999998,4.23999955 15.9999998,6.99999988 L15.9999998,9.99999988 L7.99999976,9.99999988 C5.79999985,9.99999988 4.01999976,11.7999995 4.01999976,13.9999999 L4.01999976,21.5999991 L6.99999976,21.5999991 C9.979999,21.5999991 12.3999989,24.019999 12.3999989,26.9999999 C12.3999989,29.9799978 9.979999,32.3999997 6.99999976,32.3999997 L3.99999976,32.3999997 L3.99999976,39.9999999 C3.99999976,42.1999975 5.79999985,43.9999999 7.99999976,43.9999999 L15.5999995,43.9999999 L15.5999995,40.9999999 C15.5999995,38.0199977 18.0199993,35.5999959 20.9999998,35.5999959 C23.9799982,35.5999959 26.399998,38.0199937 26.399998,40.9999999 L26.399998,43.9999999 L33.9999998,43.9999999 C36.1999978,43.9999999 37.9999998,42.1999975 37.9999998,39.9999999 L37.9999998,31.9999999 L40.9999998,31.9999999 C43.7599954,31.9999999 45.9999998,29.7599984 45.9999998,26.9999999 C45.9999998,24.2399983 43.7599954,21.9999999 40.9999998,21.9999999 Z" id="Fill-3"></path>
                        </g>
                    </g>
                </g>
            </g>
        </g>
    </g>
</svg>