<?xml version="1.0" encoding="UTF-8"?>
<svg width="35px" height="44px" viewBox="0 0 35 44" version="1.1" xmlns="http://www.w3.org/2000/svg" xmlns:xlink="http://www.w3.org/1999/xlink">
    <!-- Generator: Sketch 55.2 (78181) - https://sketchapp.com -->
    <title>Fill 3@2x</title>
    <desc>Created with Sketch.</desc>
    <g id="Corporate" stroke="none" stroke-width="1" fill="none" fill-rule="evenodd">
        <g id="Desktop-HD-Blue" transform="translate(-278.000000, -8568.000000)" fill="#FFFFFF">
            <g id="Mission" transform="translate(0.000000, 6112.000000)">
                <g id="Values" transform="translate(245.000000, 1646.000000)">
                    <g id="5" transform="translate(0.000000, 774.000000)">
                        <g id="Group-5" transform="translate(26.000000, 34.000000)">
                            <path d="M24.1111101,21.5555544 C26.7999998,21.5555544 28.9999987,19.3555543 28.9999987,16.6666658 C28.9999987,13.9777773 26.7999998,11.7777772 24.1111101,11.7777772 C21.4222204,11.7777772 19.2466664,13.9777773 19.2466664,16.6666658 C19.2466664,19.3555543 21.4222204,21.5555544 24.1111101,21.5555544 Z M36.3333316,2 L11.8888886,2 C9.20000011,2 7,4.19999997 7,6.8888886 L7,41.1111088 C7,43.7999975 9.20000011,46 11.8888886,46 L36.3333316,46 C39.0222203,46 41.2222202,43.7999975 41.2222202,41.1111088 L41.2222202,6.8888886 C41.2222202,4.19999982 39.0222203,2 36.3333316,2 Z M11.8888886,6.8888886 L36.3333316,6.8888886 L36.3333316,32.5555537 C36.3333316,28.4733315 28.1933323,26.444443 24.1111101,26.444443 C20.0288879,26.444443 11.8888886,28.4733315 11.8888886,32.5555537 L11.8888886,6.8888886 Z M23.9999996,39.0741661 L20.3949999,41.2499993 L21.3516664,37.1491658 L18.1666666,34.3899996 L22.3608328,34.0341664 L23.9999996,30.1666666 L25.6391659,34.0341664 L29.8333326,34.3899996 L26.6483333,37.1491658 L27.6049994,41.2499993 L23.9999996,39.0741661 Z" id="Fill-3"></path>
                        </g>
                    </g>
                </g>
            </g>
        </g>
    </g>
</svg>