<?xml version="1.0" encoding="UTF-8"?>
<svg width="18px" height="13px" viewBox="0 0 18 13" version="1.1" xmlns="http://www.w3.org/2000/svg" xmlns:xlink="http://www.w3.org/1999/xlink">
    <!-- Generator: Sketch 55.2 (78181) - https://sketchapp.com -->
    <title>”@2x</title>
    <desc>Created with Sketch.</desc>
    <g id="Corporate" stroke="none" stroke-width="1" fill="none" fill-rule="evenodd">
        <g id="Desktop-HD-Blue" transform="translate(-1115.000000, -3179.000000)" fill="#272B3D" fill-rule="nonzero">
            <g id="Group-8-Copy" transform="translate(0.000000, 2620.000000)">
                <g id="Group-17" transform="translate(814.000000, 225.000000)">
                    <path d="M302.558594,346.339844 L302.03125,344.816406 C303.710938,344.347656 305,343.253906 305,341.652344 C305,339.972656 303.710938,338.878906 301.796875,338.761719 C301.796875,336.320312 303.183594,334.367188 305.566406,334.367188 C307.890625,334.367188 309.414062,336.203125 309.414062,338.898438 C309.414062,342.863281 306.152344,345.558594 302.558594,346.339844 Z M311.953125,346.339844 L311.425781,344.816406 C313.105469,344.347656 314.394531,343.253906 314.394531,341.652344 C314.394531,339.972656 313.105469,338.878906 311.191406,338.761719 C311.191406,336.320312 312.578125,334.367188 314.960938,334.367188 C317.285156,334.367188 318.808594,336.203125 318.808594,338.898438 C318.808594,342.863281 315.546875,345.558594 311.953125,346.339844 Z" id="”"></path>
                </g>
            </g>
        </g>
    </g>
</svg>
