<?xml version="1.0" encoding="UTF-8"?>
<svg width="18px" height="13px" viewBox="0 0 18 13" version="1.1" xmlns="http://www.w3.org/2000/svg" xmlns:xlink="http://www.w3.org/1999/xlink">
    <!-- Generator: Sketch 55.2 (78181) - https://sketchapp.com -->
    <title>“@2x</title>
    <desc>Created with Sketch.</desc>
    <g id="Corporate" stroke="none" stroke-width="1" fill="none" fill-rule="evenodd">
        <g id="Desktop-HD-Blue" transform="translate(-815.000000, -3120.000000)" fill="#272B3D" fill-rule="nonzero">
            <g id="Group-8-Copy" transform="translate(0.000000, 2620.000000)">
                <g id="Group-17" transform="translate(814.000000, 225.000000)">
                    <path d="M8.59375,275.347656 L9.12109375,276.890625 C7.44140625,277.339844 6.15234375,278.433594 6.15234375,280.054688 C6.15234375,281.714844 7.44140625,282.828125 9.35546875,282.925781 C9.35546875,285.367188 7.94921875,287.339844 5.5859375,287.339844 C3.26171875,287.339844 1.73828125,285.484375 1.73828125,282.789062 C1.73828125,278.824219 5,276.128906 8.59375,275.347656 Z M18.0078125,275.347656 L18.5351562,276.890625 C16.8554688,277.339844 15.546875,278.433594 15.546875,280.054688 C15.546875,281.714844 16.8554688,282.828125 18.7695312,282.925781 C18.7695312,285.367188 17.3632812,287.339844 14.9804688,287.339844 C12.6757812,287.339844 11.1523438,285.484375 11.1523438,282.789062 C11.1523438,278.824219 14.4140625,276.128906 18.0078125,275.347656 Z" id="“"></path>
                </g>
            </g>
        </g>
    </g>
</svg>