<?xml version="1.0" encoding="UTF-8"?>
<svg width="58px" height="28px" viewBox="0 0 58 28" version="1.1" xmlns="http://www.w3.org/2000/svg" xmlns:xlink="http://www.w3.org/1999/xlink">
    <!-- Generator: Sketch 55.2 (78181) - https://sketchapp.com -->
    <title>Fill 3@2x</title>
    <desc>Created with Sketch.</desc>
    <g id="Corporate" stroke="none" stroke-width="1" fill="none" fill-rule="evenodd">
        <g id="Desktop-HD-Blue" transform="translate(-266.000000, -8204.000000)" fill="#FFFFFF">
            <g id="Mission" transform="translate(0.000000, 6112.000000)">
                <g id="Values" transform="translate(245.000000, 1646.000000)">
                    <g id="3" transform="translate(0.000000, 402.000000)">
                        <g id="Group-13" transform="translate(0.000000, 8.000000)">
                            <g id="Group-5" transform="translate(21.000000, 26.000000)">
                                <path d="M28.9999986,23.9999998 C31.7599961,23.9999998 33.979998,21.7599995 33.979998,18.9999998 C33.979998,16.2399994 31.7599961,13.9999998 28.9999986,13.9999998 C26.2399982,13.9999998 23.9999986,16.2399994 23.9999986,18.9999998 C23.9999986,21.7599995 26.2399982,23.9999998 28.9999986,23.9999998 Z M13.9999995,22 C17.3199986,22 19.9799984,19.319999 19.9799984,16 C19.9799984,12.6800002 17.3199986,10 13.9999995,10 C10.6799998,10 7.99999952,12.6800002 7.99999952,16 C7.99999952,19.319999 10.6799998,22 13.9999995,22 Z M43.9999995,22 C47.3199986,22 49.9799984,19.319999 49.9799984,16 C49.9799984,12.6800002 47.3199986,10 43.9999995,10 C40.6799998,10 37.9999995,12.6800002 37.9999995,16 C37.9999995,19.319999 40.6799998,22 43.9999995,22 Z M28.9999989,27.9999989 C25.3399987,27.9999989 17.9999989,29.839999 17.9999989,33.4999989 L17.9999989,37.9999989 L39.9999989,37.9999989 L39.9999989,33.4999989 C39.9999989,29.839999 32.659998,27.9999989 28.9999989,27.9999989 Z M14,25.999999 C9.33999964,25.999999 0,28.3399991 0,32.999999 L0,37.999999 L14,37.999999 L14,33.499999 C14,31.7999979 14.6599989,28.8199985 18.7399987,26.5599984 C17,26.1999998 15.3199987,25.999999 14,25.999999 Z M43.7399987,25.999999 C48.399999,25.999999 57.7399987,28.3399991 57.7399987,32.999999 L57.7399987,37.999999 L43.7399987,37.999999 L43.7399987,33.499999 C43.7399987,31.7999979 43.0799998,28.8199985 39,26.5599984 C40.7399987,26.1999998 42.42,25.999999 43.7399987,25.999999 Z" id="Fill-3"></path>
                            </g>
                        </g>
                    </g>
                </g>
            </g>
        </g>
    </g>
</svg>